# This file uses centimeters as units for non-parametric coordinates.

mtllib door frame.mtl
g default
v 2.941074 5.806684 -0.180398
v -2.941074 5.806684 -0.180398
v 2.941074 5.806684 0.180398
v -2.941074 5.806684 0.180398
v 2.941074 -5.806684 0.180322
v -2.941074 -5.806684 0.180398
v 2.941074 -5.806684 -0.180398
v -2.941074 -5.806684 -0.180398
v 2.628643 5.442530 0.180398
v -2.643162 5.436136 0.180398
v -2.633358 -5.806684 0.180398
v 2.636402 -5.806684 0.180398
v 2.628643 5.442530 -0.051503
v -2.643162 5.436136 -0.051503
v -2.633358 -5.806684 -0.051503
v 2.636402 -5.806684 -0.051503
v 2.402195 5.268942 -0.051503
v -2.402134 5.268942 -0.051503
v -2.405834 -5.806684 -0.051503
v 2.398216 -5.806684 -0.051434
v -2.402134 5.268942 -0.180398
v 2.402195 5.268942 -0.180398
v 2.398216 -5.806684 -0.180398
v -2.405834 -5.806684 -0.180398
v -2.643169 5.436136 -0.180398
v -2.633358 -5.806684 -0.180398
v 2.628643 5.442537 -0.180398
v 2.636402 -5.806684 -0.180398
v 2.635738 5.806684 0.180398
v 2.635742 5.806684 -0.180398
v -2.645931 5.806684 -0.180398
v -2.645931 5.806684 0.180398
vt 0.375000 0.000000
vt 0.625000 0.000000
vt 0.375000 0.250000
vt 0.625000 0.250000
vt 0.250000 0.375000
vt 0.750000 0.375000
vt 0.250000 0.375000
vt 0.750000 0.375000
vt 0.375000 1.000000
vt 0.625000 1.000000
vt 0.375000 0.250000
vt 0.625000 0.250000
vt 0.625000 0.500000
vt 0.375000 0.500000
vt 0.375000 0.250000
vt 0.625000 0.250000
vt 0.625000 0.500000
vt 0.375000 0.500000
vt 0.375000 0.250000
vt 0.625000 0.250000
vt 0.625000 0.500000
vt 0.375000 0.500000
vt 0.602095 0.988424
vt 0.397905 0.988424
vt 0.398244 0.750000
vt 0.602410 0.750000
vt 0.612477 0.993671
vt 0.611999 0.750000
vt 0.385154 0.994868
vt 0.387929 0.750000
vt 0.387956 0.250000
vt 0.388387 0.000000
vt 0.388387 1.000000
vt 0.611881 0.000000
vt 0.611881 1.000000
vt 0.611883 0.250000
vn 0.000000 1.000000 0.000000
vn 0.000000 1.000000 0.000000
vn 0.000000 1.000000 0.000000
vn 0.000000 1.000000 0.000000
vn -0.000000 -0.000000 -1.000000
vn -0.000000 -0.000000 -1.000000
vn 0.000000 0.000000 -1.000000
vn 0.000000 0.000000 -1.000000
vn -1.000000 0.000000 0.000000
vn -1.000000 0.000000 0.000000
vn -1.000000 0.000000 0.000000
vn -1.000000 0.000000 0.000000
vn 1.000000 -0.000000 -0.000000
vn 1.000000 -0.000000 -0.000000
vn 1.000000 -0.000000 -0.000000
vn 1.000000 -0.000000 -0.000000
vn -0.000000 -0.000000 1.000000
vn -0.000000 -0.000000 1.000000
vn -0.000000 -0.000000 1.000000
vn -0.000000 -0.000000 1.000000
vn -0.000000 -0.000000 1.000000
vn -0.000000 -0.000000 1.000000
vn -0.000000 -0.000000 1.000000
vn -0.000000 -0.000000 1.000000
vn 0.000126 -0.000003 1.000000
vn 0.000126 -0.000003 1.000000
vn 0.000126 -0.000003 1.000000
vn 0.000126 -0.000003 1.000000
vn 0.001213 -0.999999 -0.000000
vn 0.001213 -0.999999 -0.000000
vn 0.001213 -0.999999 -0.000000
vn 0.001213 -0.999999 -0.000000
vn 1.000000 0.000872 0.000000
vn 1.000000 0.000872 0.000000
vn 1.000000 0.000872 0.000000
vn 1.000000 0.000872 0.000000
vn -1.000000 -0.000690 -0.000000
vn -1.000000 -0.000690 -0.000000
vn -1.000000 -0.000690 -0.000000
vn -1.000000 -0.000690 -0.000000
vn 0.000000 0.000004 1.000000
vn 0.000000 0.000004 1.000000
vn 0.000000 0.000004 1.000000
vn 0.000000 0.000004 1.000000
vn -0.000000 -0.000000 1.000000
vn -0.000000 -0.000000 1.000000
vn -0.000000 -0.000000 1.000000
vn -0.000000 -0.000000 1.000000
vn 0.000147 0.000003 1.000000
vn 0.000147 0.000003 1.000000
vn 0.000147 0.000003 1.000000
vn 0.000147 0.000003 1.000000
vn -0.000000 -0.000000 -1.000000
vn 0.000000 0.000001 -1.000000
vn 0.000000 0.000000 -1.000000
vn 0.000000 0.000000 -1.000000
vn 0.000000 0.000000 -1.000000
vn -0.000000 -1.000000 -0.000000
vn -0.000000 -1.000000 -0.000000
vn -0.000000 -1.000000 -0.000000
vn -0.000000 -1.000000 -0.000000
vn 1.000000 -0.000334 -0.000000
vn 1.000000 -0.000334 -0.000000
vn 1.000000 -0.000334 -0.000000
vn 1.000000 -0.000334 -0.000000
vn -1.000000 0.000359 0.000000
vn -1.000000 0.000359 0.000000
vn -1.000000 0.000359 0.000000
vn -1.000000 0.000359 0.000000
vn -0.000000 -0.000000 -1.000000
vn -0.000000 -0.000002 -1.000000
vn -0.000000 -0.000002 -1.000000
vn 0.000000 0.000000 -1.000000
vn 0.000000 0.000000 -1.000000
vn -0.000000 -0.000000 1.000000
vn 0.000000 1.000000 0.000000
vn 0.000000 1.000000 0.000000
vn 0.000000 1.000000 0.000000
vn 0.000000 1.000000 0.000000
vn -0.000000 -0.000000 1.000000
vn -0.000000 -1.000000 -0.000000
vn -0.000000 -1.000000 -0.000000
vn -0.000000 -1.000000 -0.000000
vn -0.000000 -1.000000 -0.000000
vn -0.000000 -1.000000 -0.000000
vn -0.000000 -1.000000 -0.000000
vn -0.000000 -1.000000 -0.000000
vn -0.000000 -1.000000 -0.000000
vn -0.000000 -1.000000 -0.000000
vn -0.000000 -1.000000 -0.000000
vn -0.000000 -1.000000 -0.000000
vn -0.000000 -1.000000 -0.000000
vn -0.000000 -1.000000 -0.000000
vn -0.000000 -1.000000 -0.000000
vn -0.000000 -1.000000 -0.000000
vn -0.000000 -1.000000 -0.000000
s 1
g pCube1
usemtl initialShadingGroup
f 29/31/1 30/32/2 31/34/3 32/36/4
s 2
f 25/27/5 26/28/6 8/8/7 2/10/8
s off
f 2/2/9 8/8/10 6/6/11 4/4/12
f 7/7/13 1/1/14 3/3/15 5/5/16
s 3
f 9/11/17 29/31/18 32/36/19 10/12/20
s off
f 4/4/21 6/6/22 11/13/23 10/12/24
f 5/5/25 3/3/26 9/11/27 12/14/28
f 9/11/29 10/12/30 14/16/31 13/15/32
f 10/12/33 11/13/34 15/17/35 14/16/36
f 12/14/37 9/11/38 13/15/39 16/18/40
f 13/15/41 14/16/42 18/20/43 17/19/44
f 14/16/45 15/17/46 19/21/47 18/20/48
f 16/18/49 13/15/50 17/19/51 20/22/52
s 2
f 25/27/5 27/29/53 22/24/54 21/23/55
f 27/29/53 28/30/56 23/25/57 22/24/54
s off
f 17/19/58 18/20/59 21/23/60 22/24/61
f 18/20/62 19/21/63 24/26/64 21/23/65
f 20/22/66 17/19/67 22/24/68 23/25/69
s 2
f 21/23/55 24/26/70 26/28/6 25/27/5
f 30/33/71 27/29/53 25/27/5 31/35/72
f 7/7/73 28/30/56 27/29/53 1/9/74
s 3
f 3/3/75 29/31/18 9/11/17
s 1
f 1/1/76 30/32/2 29/31/1 3/3/77
s 2
f 1/9/74 27/29/53 30/33/71
f 31/35/72 25/27/5 2/10/8
s 1
f 32/36/4 31/34/3 2/2/78 4/4/79
s 3
f 10/12/20 32/36/19 4/4/80
s off
f 28/30/81 7/7/82 5/5/83 12/14/84
f 16/18/85 20/22/86 23/25/87 28/30/88
f 11/13/89 6/6/90 8/8/91 26/28/92
f 19/21/93 15/17/94 26/28/95 24/26/96
