# This file uses centimeters as units for non-parametric coordinates.

mtllib picture frame.mtl
g default
v -3.201865 -3.201865 0.164715
v 3.201865 -3.201865 0.164715
v -3.201865 3.201865 0.164715
v 3.201865 3.201865 0.164715
v -3.201865 3.201865 -0.164715
v 3.201865 3.201865 -0.164715
v -3.201865 -3.201865 -0.164715
v 3.201865 -3.201865 -0.164715
v -3.083689 -3.083689 0.164715
v 3.083689 -3.083689 0.164715
v 3.083689 3.083688 0.164715
v -3.083689 3.083688 0.164715
v -2.965512 -2.965512 0.046759
v 2.965512 -2.965512 0.046759
v 2.965512 2.965512 0.046759
v -2.965512 2.965512 0.046759
v -2.858359 -2.858359 0.046759
v 2.858359 -2.858359 0.046759
v 2.858359 2.858359 0.046759
v -2.858359 2.858359 0.046759
v -2.771057 -2.771057 -0.015259
v 2.771057 -2.771057 -0.015259
v 2.771057 2.771057 -0.015259
v -2.771057 2.771057 -0.015259
v -2.653944 -2.653944 -0.015259
v 2.653944 -2.653944 -0.015259
v 2.653944 2.653944 -0.015259
v -2.653944 2.653944 -0.015259
v -2.561492 -2.561492 -0.098372
v 2.561492 -2.561492 -0.098372
v 2.561492 2.561492 -0.098372
v -2.561492 2.561492 -0.098372
v -2.561492 2.561492 -0.164715
v 2.561492 2.561492 -0.164715
v 2.561492 -2.561492 -0.164715
v -2.561492 -2.561492 -0.164715
vt 0.375000 0.000000
vt 0.625000 0.000000
vt 0.375000 0.250000
vt 0.625000 0.250000
vt 0.375000 0.500000
vt 0.625000 0.500000
vt 0.375000 0.750000
vt 0.625000 0.750000
vt 0.375000 1.000000
vt 0.625000 1.000000
vt 0.875000 0.000000
vt 0.875000 0.250000
vt 0.125000 0.000000
vt 0.125000 0.250000
vt 0.375000 0.000000
vt 0.625000 0.000000
vt 0.625000 0.250000
vt 0.375000 0.250000
vt 0.375000 0.000000
vt 0.625000 0.000000
vt 0.625000 0.250000
vt 0.375000 0.250000
vt 0.375000 0.000000
vt 0.625000 0.000000
vt 0.625000 0.250000
vt 0.375000 0.250000
vt 0.375000 0.000000
vt 0.625000 0.000000
vt 0.625000 0.250000
vt 0.375000 0.250000
vt 0.375000 0.000000
vt 0.625000 0.000000
vt 0.625000 0.250000
vt 0.375000 0.250000
vt 0.375000 0.000000
vt 0.625000 0.000000
vt 0.625000 0.250000
vt 0.375000 0.250000
vt 0.399984 0.523880
vt 0.601007 0.524167
vt 0.600143 0.725270
vt 0.399144 0.725418
vn 0.000000 1.000000 0.000000
vn 0.000000 1.000000 0.000000
vn 0.000000 1.000000 0.000000
vn 0.000000 1.000000 0.000000
vn 0.000000 -0.000000 -1.000000
vn 0.000000 0.000000 -1.000000
vn 0.000000 0.000000 -1.000000
vn 0.000000 -0.000000 -1.000000
vn 0.000000 -1.000000 0.000000
vn 0.000000 -1.000000 0.000000
vn 0.000000 -1.000000 0.000000
vn 0.000000 -1.000000 0.000000
vn 1.000000 0.000000 0.000000
vn 1.000000 0.000000 0.000000
vn 1.000000 0.000000 0.000000
vn 1.000000 0.000000 0.000000
vn -1.000000 0.000000 0.000000
vn -1.000000 0.000000 0.000000
vn -1.000000 0.000000 0.000000
vn -1.000000 0.000000 0.000000
vn 0.000000 0.000000 1.000000
vn 0.000000 0.000000 1.000000
vn 0.000000 0.000000 1.000000
vn 0.000000 0.000000 1.000000
vn 0.000000 0.000000 1.000000
vn 0.000000 0.000000 1.000000
vn 0.000000 0.000000 1.000000
vn 0.000000 0.000000 1.000000
vn 0.000000 0.000000 1.000000
vn 0.000000 0.000000 1.000000
vn 0.000000 0.000000 1.000000
vn 0.000000 0.000000 1.000000
vn 0.000000 0.000000 1.000000
vn 0.000000 0.000000 1.000000
vn 0.000000 0.000000 1.000000
vn 0.000000 0.000000 1.000000
vn 0.000000 0.706445 0.707768
vn 0.000000 0.706445 0.707768
vn 0.000000 0.706445 0.707768
vn 0.000000 0.706445 0.707768
vn -0.706445 0.000000 0.707768
vn -0.706445 0.000000 0.707768
vn -0.706445 0.000000 0.707768
vn -0.706445 0.000000 0.707768
vn 0.000000 -0.706446 0.707767
vn 0.000000 -0.706446 0.707767
vn 0.000000 -0.706446 0.707767
vn 0.000000 -0.706446 0.707767
vn 0.706445 0.000000 0.707768
vn 0.706445 0.000000 0.707768
vn 0.706445 0.000000 0.707768
vn 0.706445 0.000000 0.707768
vn 0.000000 0.000000 1.000000
vn 0.000000 0.000000 1.000000
vn 0.000000 0.000000 1.000000
vn 0.000000 0.000000 1.000000
vn -0.000000 0.000000 1.000000
vn -0.000000 0.000000 1.000000
vn -0.000000 0.000000 1.000000
vn -0.000000 0.000000 1.000000
vn 0.000000 0.000000 1.000000
vn 0.000000 0.000000 1.000000
vn 0.000000 0.000000 1.000000
vn 0.000000 0.000000 1.000000
vn 0.000000 0.000000 1.000000
vn 0.000000 0.000000 1.000000
vn 0.000000 0.000000 1.000000
vn 0.000000 0.000000 1.000000
vn 0.000000 0.579131 0.815234
vn 0.000000 0.579131 0.815234
vn 0.000000 0.579131 0.815234
vn 0.000000 0.579131 0.815234
vn -0.579131 0.000000 0.815235
vn -0.579131 0.000000 0.815235
vn -0.579131 0.000000 0.815235
vn -0.579131 0.000000 0.815235
vn 0.000000 -0.579133 0.815233
vn 0.000000 -0.579133 0.815233
vn 0.000000 -0.579133 0.815233
vn 0.000000 -0.579133 0.815233
vn 0.579130 0.000000 0.815235
vn 0.579130 0.000000 0.815235
vn 0.579130 0.000000 0.815235
vn 0.579130 0.000000 0.815235
vn 0.000000 0.000000 1.000000
vn 0.000000 0.000000 1.000000
vn 0.000000 0.000000 1.000000
vn 0.000000 0.000000 1.000000
vn -0.000000 0.000000 1.000000
vn -0.000000 0.000000 1.000000
vn -0.000000 0.000000 1.000000
vn -0.000000 0.000000 1.000000
vn 0.000000 0.000000 1.000000
vn 0.000000 0.000000 1.000000
vn 0.000000 0.000000 1.000000
vn 0.000000 0.000000 1.000000
vn 0.000000 0.000000 1.000000
vn 0.000000 0.000000 1.000000
vn 0.000000 0.000000 1.000000
vn 0.000000 0.000000 1.000000
vn 0.000000 0.668547 0.743670
vn 0.000000 0.668547 0.743670
vn 0.000000 0.668547 0.743670
vn 0.000000 0.668547 0.743670
vn -0.668544 0.000000 0.743672
vn -0.668544 0.000000 0.743672
vn -0.668544 0.000000 0.743672
vn -0.668544 0.000000 0.743672
vn 0.000000 -0.668543 0.743673
vn 0.000000 -0.668543 0.743673
vn 0.000000 -0.668543 0.743673
vn 0.000000 -0.668543 0.743673
vn 0.668545 0.000000 0.743672
vn 0.668545 0.000000 0.743672
vn 0.668545 0.000000 0.743672
vn 0.668545 0.000000 0.743672
vn -0.000000 0.000000 -1.000000
vn -0.000000 0.000000 -1.000000
vn -0.000000 -0.000000 -1.000000
vn -0.000000 -0.000000 -1.000000
vn 1.000000 0.000000 0.000000
vn 1.000000 0.000000 0.000000
vn 1.000000 0.000000 0.000000
vn 1.000000 0.000000 0.000000
vn 0.000000 -1.000000 0.000000
vn 0.000000 -1.000000 0.000000
vn 0.000000 -1.000000 0.000000
vn 0.000000 -1.000000 0.000000
vn -1.000000 0.000000 0.000000
vn -1.000000 0.000000 0.000000
vn -1.000000 0.000000 0.000000
vn -1.000000 0.000000 0.000000
vn 0.000000 1.000000 0.000000
vn 0.000000 1.000000 0.000000
vn 0.000000 1.000000 0.000000
vn 0.000000 1.000000 0.000000
s off
g pCube1
usemtl initialShadingGroup
f 3/3/1 4/4/2 6/6/3 5/5/4
s 1
f 35/41/5 34/40/6 6/6/7 8/8/8
s off
f 7/7/9 8/8/10 2/10/11 1/9/12
f 2/2/13 8/11/14 6/12/15 4/4/16
f 7/13/17 1/1/18 3/3/19 5/14/20
f 1/1/21 2/2/22 10/16/23 9/15/24
f 2/2/25 4/4/26 11/17/27 10/16/28
f 4/4/29 3/3/30 12/18/31 11/17/32
f 3/3/33 1/1/34 9/15/35 12/18/36
f 9/15/37 10/16/38 14/20/39 13/19/40
f 10/16/41 11/17/42 15/21/43 14/20/44
f 11/17/45 12/18/46 16/22/47 15/21/48
f 12/18/49 9/15/50 13/19/51 16/22/52
f 13/19/53 14/20/54 18/24/55 17/23/56
f 14/20/57 15/21/58 19/25/59 18/24/60
f 15/21/61 16/22/62 20/26/63 19/25/64
f 16/22/65 13/19/66 17/23/67 20/26/68
f 17/23/69 18/24/70 22/28/71 21/27/72
f 18/24/73 19/25/74 23/29/75 22/28/76
f 19/25/77 20/26/78 24/30/79 23/29/80
f 20/26/81 17/23/82 21/27/83 24/30/84
f 21/27/85 22/28/86 26/32/87 25/31/88
f 22/28/89 23/29/90 27/33/91 26/32/92
f 23/29/93 24/30/94 28/34/95 27/33/96
f 24/30/97 21/27/98 25/31/99 28/34/100
f 25/31/101 26/32/102 30/36/103 29/35/104
f 26/32/105 27/33/106 31/37/107 30/36/108
f 27/33/109 28/34/110 32/38/111 31/37/112
f 28/34/113 25/31/114 29/35/115 32/38/116
s 1
f 5/5/117 6/6/7 34/40/6 33/39/118
f 7/7/119 36/42/120 35/41/5 8/8/8
f 5/5/117 33/39/118 36/42/120 7/7/119
s off
f 32/38/121 29/35/122 36/42/123 33/39/124
f 31/37/125 32/38/126 33/39/127 34/40/128
f 30/36/129 31/37/130 34/40/131 35/41/132
f 29/35/133 30/36/134 35/41/135 36/42/136
